<svg t="1708570211835" class="icon" viewBox="0 0 1024 1024" version="1.1" xmlns="http://www.w3.org/2000/svg" p-id="5672"
	width="512" height="512">
	<path
		d="M510 64.4c-246.5 0-447.6 200-447.6 447.6 0 246.5 200 447.6 447.6 447.6 246.5 0 447.6-200 447.6-447.6 0-246.5-200.1-447.6-447.6-447.6z m0 831.9c-212.3 0-384.3-172-384.3-384.3s172-384.3 384.3-384.3 384.3 172 384.3 384.3-172 384.3-384.3 384.3z m229.1-181.2c-18.4-70.4-67.9-125.5-131.2-153.6 48-30.6 79.6-84.2 79.6-144.9 0-94.9-77.1-172-172-172s-172 77.1-172 172c0 61.2 31.6 114.8 79.6 144.9-63.8 27.6-113.3 83.2-131.7 153.6-4.1 16.3 5.6 33.2 21.9 37.3 2.6 0.5 5.1 1 7.7 1 13.8 0 26-9.2 29.6-23 19.4-75 87.3-127.1 164.3-127.1S660 655.4 679.4 730.4c4.1 16.3 20.9 26 37.3 21.9 16.8-4 27-20.9 22.4-37.2zM515.6 305.8c61.2 0 110.7 49.5 110.7 110.7s-49.5 110.7-110.7 110.7-110.7-49.5-110.7-110.7 49.5-110.7 110.7-110.7z"
		fill="#1296db" p-id="5673"></path>
</svg>