<svg t="1708579621814" class="icon" viewBox="0 0 1024 1024" version="1.1" xmlns="http://www.w3.org/2000/svg" p-id="3909"
	width="512" height="512">
	<path
		d="M512 128c212.064 0 384 171.936 384 384s-171.936 384-384 384S128 724.064 128 512 299.936 128 512 128z m0 64C335.296 192 192 335.296 192 512s143.296 320 320 320 320-143.296 320-320S688.704 192 512 192z m6.848 429.728a48 48 0 1 1 0 96 48 48 0 0 1 0-96zM516.576 320a32 32 0 0 1 32 32v182.848a32 32 0 1 1-64 0V352a32 32 0 0 1 32-32z"
		fill="#111111" p-id="3910"></path>
</svg>