<svg t="1708506555857" class="icon" viewBox="0 0 1024 1024" version="1.1" xmlns="http://www.w3.org/2000/svg" p-id="6394"
	width="256" height="256">
	<path d="M123.2 634.4h378.4V216.8L123.2 363.2z" fill="#D5D5D5" p-id="6395"></path>
	<path d="M892.8 634.4H501.6V216.8l391.2 146.4zM123.2 527.2h378.4v392L123.2 772.8z" fill="#C9C9C9" p-id="6396"></path>
	<path d="M892.8 527.2H501.6v392l391.2-146.4z" fill="#DFDFDF" p-id="6397"></path>
	<path d="M501.6 527.2L407.2 728.8 16 576.8l107.2-210.4z" fill="#E5E5E5" p-id="6398"></path>
	<path d="M501.6 527.2l103.2 201.6L1000 572l-107.2-209.6z" fill="#EBEBEB" p-id="6399"></path>
	<path d="M658.4 226.4l49.6-127.2 53.6 44.8zM683.2 226.4l86.4-45.6-8 37.6zM645.6 218.4l-24-78.4 36.8-28.8z"
		fill="#BFBFBF" p-id="6400"></path>
</svg>