<svg t="1708577007289" class="icon" viewBox="0 0 1024 1024" version="1.1" xmlns="http://www.w3.org/2000/svg" p-id="3444"
	width="512" height="512">
	<path
		d="M621.653333 96a32 32 0 0 1 0 64H257.578667A97.578667 97.578667 0 0 0 160 257.578667v508.842666a97.578667 97.578667 0 0 0 97.578667 97.578667h507.264a97.578667 97.578667 0 0 0 97.578666-97.152l1.578667-356.928a32 32 0 0 1 64 0.277333l-1.578667 356.928a161.578667 161.578667 0 0 1-161.578666 160.874667H257.578667A161.578667 161.578667 0 0 1 96 766.421333V257.578667A161.578667 161.578667 0 0 1 257.578667 96H621.653333z"
		fill="#111111" p-id="3445"></path>
	<path
		d="M753.258667 113.557333L455.552 409.6a64 64 0 0 0-18.88 45.376v53.845333a67.242667 67.242667 0 0 0 65.770667 67.242667l50.986666 1.109333a64 64 0 0 0 45.738667-17.813333L902.826667 267.946667a107.946667 107.946667 0 0 0 3.242666-152.490667l-1.450666-1.493333a107.029333 107.029333 0 0 0-151.338667-0.426667z m106.538666 46.144a43.946667 43.946667 0 0 1-1.322666 62.08L554.88 513.194667l-51.008-1.130667a3.242667 3.242667 0 0 1-3.178667-3.242667v-53.845333L798.378667 158.933333a43.029333 43.029333 0 0 1 58.112-2.346666l3.306666 3.114666z"
		fill="#111111" p-id="3446"></path>
	<path d="M772.330667 154.858667l94.677333 95.274666-45.397333 45.098667-94.677334-95.253333z" fill="#111111"
		p-id="3447"></path>
</svg>